<?xml version="1.0" standalone="no"?><!DOCTYPE svg PUBLIC "-//W3C//DTD SVG 1.1//EN" "http://www.w3.org/Graphics/SVG/1.1/DTD/svg11.dtd"><svg t="1690654972380" class="icon" viewBox="0 0 1024 1024" version="1.1" xmlns="http://www.w3.org/2000/svg" p-id="6857" xmlns:xlink="http://www.w3.org/1999/xlink" width="32" height="32"><path d="M512 912.695652c221.295304 0 400.695652-179.400348 400.695652-400.695652S733.295304 111.304348 512 111.304348 111.304348 290.704696 111.304348 512s179.400348 400.695652 400.695652 400.695652z" fill="#0B77E3" fill-opacity=".2" p-id="6858"></path><path d="M868.173913 445.874087v411.269565a11.063652 11.063652 0 0 1-11.186087 11.030261h-689.975652A11.130435 11.130435 0 0 1 155.826087 857.132522v-411.269565L319.443478 256h385.113044L868.173913 445.874087z" fill="#0B77E3" p-id="6859"></path><path d="M884.958609 431.248696l0.411826 0.478608c3.85113 4.674783 5.398261 10.139826 5.064348 15.393392v410.011826A33.324522 33.324522 0 0 1 856.987826 890.434783h-689.975652A33.391304 33.391304 0 0 1 133.565217 857.132522V447.120696a21.815652 21.815652 0 0 1 5.476174-15.872l163.528348-189.773913A22.26087 22.26087 0 0 1 319.443478 233.73913h385.135305a22.26087 22.26087 0 0 1 16.862608 7.724522l163.528348 189.785044zM868.173913 445.885217L704.556522 256H319.443478L155.826087 445.874087v411.269565a11.130435 11.130435 0 0 0 11.186087 11.030261h689.975652A11.063652 11.063652 0 0 0 868.173913 857.132522v-411.269565z" fill="#005CB9" p-id="6860"></path><path d="M200.347826 144.717913c0-6.15513 5.008696-11.152696 11.085913-11.152696h601.132522c6.121739 0 11.085913 5.042087 11.085913 11.152696v678.912c0 6.15513-5.008696 11.152696-11.085913 11.152696H211.433739c-6.121739 0-11.085913-5.042087-11.085913-11.152696V144.717913z" fill="#FFFFFF" p-id="6861"></path><path d="M200.347826 144.662261v679.023304c0 6.010435 4.964174 11.097043 11.085913 11.097044h601.132522a11.130435 11.130435 0 0 0 11.085913-11.097044V144.662261c0-6.010435-4.964174-11.097043-11.085913-11.097044H211.433739a11.130435 11.130435 0 0 0-11.085913 11.097044z m-22.260869 0A33.391304 33.391304 0 0 1 211.433739 111.304348h601.132522A33.424696 33.424696 0 0 1 845.913043 144.662261v679.023304A33.391304 33.391304 0 0 1 812.566261 857.043478H211.433739A33.424696 33.424696 0 0 1 178.086957 823.685565V144.662261z" fill="#005CB9" p-id="6862"></path><path d="M456.347826 500.869565c0-6.144 4.941913-11.130435 11.085913-11.130435h69.732174c6.121739 0 11.085913 4.941913 11.085913 11.130435 0 6.144-4.941913 11.130435-11.085913 11.130435h-69.732174A11.085913 11.085913 0 0 1 456.347826 500.869565z m0-89.043478c0-6.144 5.008696-11.130435 11.163826-11.130435h114.098087a11.130435 11.130435 0 1 1 0 22.26087h-114.086956A11.130435 11.130435 0 0 1 456.347826 411.826087z m0-44.521739c0-6.144 5.008696-11.130435 11.163826-11.130435h114.098087a11.130435 11.130435 0 1 1 0 22.26087h-114.086956A11.130435 11.130435 0 0 1 456.347826 367.304348z m0 89.043478c0-6.144 5.008696-11.130435 11.163826-11.130435h114.098087a11.130435 11.130435 0 1 1 0 22.26087h-114.086956A11.130435 11.130435 0 0 1 456.347826 456.347826zM244.869565 601.032348A11.074783 11.074783 0 0 1 256.055652 589.913043h7.212522a11.119304 11.119304 0 0 1 11.174956 11.119305v11.152695a11.074783 11.074783 0 0 1-11.174956 11.119305h-7.212522A11.119304 11.119304 0 0 1 244.869565 612.185043v-11.152695z" fill="#0B77E3" p-id="6863"></path><path d="M701.217391 189.106087c0-6.077217 5.042087-11.01913 11.097044-11.01913h66.849391c6.121739 0 11.097043 5.019826 11.097044 11.01913v44.744348c0 6.077217-5.042087 11.01913-11.097044 11.01913h-66.849391a11.119304 11.119304 0 0 1-11.097044-11.01913v-44.744348z m0 89.043478c0-6.077217 5.042087-11.01913 11.097044-11.01913h66.849391c6.121739 0 11.097043 5.019826 11.097044 11.01913v44.744348c0 6.077217-5.042087 11.01913-11.097044 11.01913h-66.849391a11.119304 11.119304 0 0 1-11.097044-11.01913v-44.744348z m0 89.043478c0-6.077217 5.042087-11.01913 11.097044-11.01913h66.849391c6.121739 0 11.097043 5.019826 11.097044 11.01913v44.744348c0 6.077217-5.042087 11.01913-11.097044 11.019131h-66.849391a11.119304 11.119304 0 0 1-11.097044-11.019131v-44.744348z m0 89.043479c0-6.077217 5.042087-11.01913 11.097044-11.019131h66.849391c6.121739 0 11.097043 5.019826 11.097044 11.019131v44.744348c0 6.077217-5.042087 11.01913-11.097044 11.01913h-66.849391a11.119304 11.119304 0 0 1-11.097044-11.01913v-44.744348z m0 89.043478c0-6.077217 5.042087-11.01913 11.097044-11.01913h66.849391c6.121739 0 11.097043 5.019826 11.097044 11.01913v44.744348c0 6.077217-5.042087 11.01913-11.097044 11.01913h-66.849391a11.119304 11.119304 0 0 1-11.097044-11.01913v-44.744348z m0 89.043478c0-6.077217 5.042087-11.01913 11.097044-11.01913h66.849391c6.121739 0 11.097043 5.019826 11.097044 11.01913v44.744348c0 6.077217-5.042087 11.01913-11.097044 11.019131h-66.849391a11.119304 11.119304 0 0 1-11.097044-11.019131v-44.744348z" fill="#40A0FF" p-id="6864"></path><path d="M645.565217 133.565217h22.26087v556.52174h-22.26087z" fill="#005CB9" p-id="6865"></path><path d="M260.296348 205.913043h9.850435c5.453913 0 9.861565-4.986435 9.861565-11.130434s-4.407652-11.130435-9.861565-11.130435h-9.850435c-5.453913 0-9.861565 4.986435-9.861565 11.130435s4.418783 11.130435 9.861565 11.130434z m39.43513 0h9.850435c5.453913 0 9.861565-4.986435 9.861565-11.130434s-4.418783-11.130435-9.861565-11.130435h-9.850435c-5.453913 0-9.861565 4.986435-9.861565 11.130435s4.407652 11.130435 9.861565 11.130434z m39.424 0h9.861565c5.453913 0 9.861565-4.986435 9.861566-11.130434s-4.418783-11.130435-9.861566-11.130435h-9.861565c-5.442783 0-9.850435 4.986435-9.850435 11.130435s4.407652 11.130435 9.850435 11.130434z m39.435131 0h9.861565c5.453913 0 9.861565-4.986435 9.861565-11.130434s-4.418783-11.130435-9.861565-11.130435h-9.861565c-5.442783 0-9.850435 4.986435-9.850435 11.130435s4.407652 11.130435 9.850435 11.130434z m39.43513 0h9.861565c5.442783 0 9.861565-4.986435 9.861566-11.130434s-4.418783-11.130435-9.861566-11.130435h-9.861565c-5.442783 0-9.861565 4.986435-9.861565 11.130435s4.418783 11.130435 9.861565 11.130434z m39.435131 0h9.861565c5.442783 0 9.850435-4.986435 9.850435-11.130434s-4.407652-11.130435-9.850435-11.130435H457.46087c-5.453913 0-9.861565 4.986435-9.861566 11.130435s4.418783 11.130435 9.861566 11.130434z m39.43513 0h9.861565c5.442783 0 9.850435-4.986435 9.850435-11.130434s-4.407652-11.130435-9.850435-11.130435h-9.861565c-5.453913 0-9.861565 4.986435-9.861565 11.130435s4.418783 11.130435 9.861565 11.130434z m39.43513 0h9.850435c5.453913 0 9.861565-4.986435 9.861565-11.130434s-4.407652-11.130435-9.861565-11.130435h-9.850435c-5.453913 0-9.861565 4.986435-9.861565 11.130435s4.418783 11.130435 9.861565 11.130434z m39.435131 0h9.850435c5.453913 0 9.861565-4.986435 9.861565-11.130434s-4.418783-11.130435-9.861565-11.130435h-9.850435c-5.453913 0-9.861565 4.986435-9.861565 11.130435s4.407652 11.130435 9.861565 11.130434z m0 22.26087v11.130435c0 6.144 4.407652 11.130435 9.850435 11.130435 5.453913 0 9.861565-4.986435 9.861565-11.130435v-11.130435c0-6.144-4.418783-11.130435-9.861565-11.130435s-9.850435 4.986435-9.850435 11.130435z m0 44.521739v11.130435c0 6.144 4.407652 11.130435 9.850435 11.130435 5.453913 0 9.861565-4.986435 9.861565-11.130435v-11.130435c0-6.144-4.418783-11.130435-9.861565-11.130435s-9.850435 4.986435-9.850435 11.130435z m9.850435 33.391305h-9.850435c-5.453913 0-9.861565 4.986435-9.861565 11.130434s4.407652 11.130435 9.861565 11.130435h9.850435c5.453913 0 9.861565-4.986435 9.861565-11.130435s-4.418783-11.130435-9.861565-11.130434z m-39.435131 0h-9.850435c-5.453913 0-9.861565 4.986435-9.861565 11.130434s4.418783 11.130435 9.861565 11.130435h9.850435c5.453913 0 9.861565-4.986435 9.861565-11.130435s-4.407652-11.130435-9.861565-11.130434z m-39.424 0h-9.861565c-5.453913 0-9.861565 4.986435-9.861565 11.130434s4.418783 11.130435 9.861565 11.130435h9.861565c5.442783 0 9.850435-4.986435 9.850435-11.130435s-4.407652-11.130435-9.850435-11.130434z m-39.43513 0H457.46087c-5.453913 0-9.861565 4.986435-9.861566 11.130434s4.418783 11.130435 9.861566 11.130435h9.861565c5.442783 0 9.850435-4.986435 9.850435-11.130435s-4.407652-11.130435-9.850435-11.130434z m-39.435131 0h-9.861565c-5.442783 0-9.861565 4.986435-9.861565 11.130434s4.418783 11.130435 9.861565 11.130435h9.861565c5.442783 0 9.861565-4.986435 9.861566-11.130435s-4.418783-11.130435-9.861566-11.130434z m-39.43513 0h-9.861565c-5.442783 0-9.850435 4.986435-9.850435 11.130434s4.407652 11.130435 9.850435 11.130435h9.861565c5.453913 0 9.861565-4.986435 9.861565-11.130435s-4.418783-11.130435-9.861565-11.130434z m-39.435131 0h-9.861565c-5.442783 0-9.850435 4.986435-9.850435 11.130434s4.407652 11.130435 9.850435 11.130435h9.861565c5.453913 0 9.861565-4.986435 9.861566-11.130435s-4.418783-11.130435-9.861566-11.130434z m-39.43513 0h-9.850435c-5.453913 0-9.861565 4.986435-9.861565 11.130434s4.407652 11.130435 9.861565 11.130435h9.850435c5.453913 0 9.861565-4.986435 9.861565-11.130435s-4.418783-11.130435-9.861565-11.130434z m-39.43513 0h-9.850435c-5.453913 0-9.861565 4.986435-9.861565 11.130434s4.418783 11.130435 9.861565 11.130435h9.850435c5.453913 0 9.861565-4.986435 9.861565-11.130435s-4.407652-11.130435-9.861565-11.130434z m0-22.26087v-11.130435c0-6.144-4.407652-11.130435-9.850435-11.130435-5.453913 0-9.861565 4.986435-9.861565 11.130435v11.130435c0 6.144 4.418783 11.130435 9.861565 11.130435s9.850435-4.986435 9.850435-11.130435z m0-44.521739c0 6.144-4.407652 11.130435-9.850435 11.130435-5.453913 0-9.861565-4.986435-9.861565-11.130435v-11.130435c0-6.144 4.418783-11.130435 9.861565-11.130435s9.850435 4.986435 9.850435 11.130435v11.130435zM260.296348 378.434783c-5.453913 0-9.861565-4.986435-9.861565-11.130435s4.418783-11.130435 9.861565-11.130435h9.850435c5.453913 0 9.861565 4.986435 9.861565 11.130435s-4.407652 11.130435-9.861565 11.130435h-9.850435z m39.43513 0c-5.453913 0-9.861565-4.986435-9.861565-11.130435s4.407652-11.130435 9.861565-11.130435h9.850435c5.453913 0 9.861565 4.986435 9.861565 11.130435s-4.418783 11.130435-9.861565 11.130435h-9.850435z m39.424 0c-5.442783 0-9.850435-4.986435-9.850435-11.130435s4.407652-11.130435 9.850435-11.130435h9.861565c5.453913 0 9.861565 4.986435 9.861566 11.130435s-4.418783 11.130435-9.861566 11.130435h-9.861565z m39.435131 0c-5.442783 0-9.850435-4.986435-9.850435-11.130435s4.407652-11.130435 9.850435-11.130435h9.861565c5.453913 0 9.861565 4.986435 9.861565 11.130435s-4.418783 11.130435-9.861565 11.130435h-9.861565z m29.573565-11.130435c0-6.144 4.418783-11.130435 9.861565-11.130435 5.453913 0 9.861565 4.986435 9.861565 11.130435v11.130435c0 6.144-4.418783 11.130435-9.861565 11.130434s-9.861565-4.986435-9.861565-11.130434v-11.130435z m0 89.043478c0-6.144 4.418783-11.130435 9.861565-11.130435 5.453913 0 9.861565 4.986435 9.861565 11.130435v11.130435c0 6.144-4.418783 11.130435-9.861565 11.130435s-9.861565-4.986435-9.861565-11.130435v-11.130435z m9.861565 33.391304c5.453913 0 9.861565 4.986435 9.861565 11.130435s-4.418783 11.130435-9.861565 11.130435h-9.861565c-5.442783 0-9.850435-4.986435-9.850435-11.130435s4.407652-11.130435 9.850435-11.130435h9.861565z m-39.43513 0c5.453913 0 9.861565 4.986435 9.861565 11.130435s-4.418783 11.130435-9.861565 11.130435h-9.850435c-5.453913 0-9.861565-4.986435-9.861565-11.130435s4.407652-11.130435 9.861565-11.130435h9.850435z m-39.435131 0c5.453913 0 9.861565 4.986435 9.861565 11.130435s-4.407652 11.130435-9.861565 11.130435h-9.850435c-5.453913 0-9.861565-4.986435-9.861565-11.130435s4.418783-11.130435 9.861565-11.130435h9.850435z m-39.424 0c5.442783 0 9.850435 4.986435 9.850435 11.130435s-4.407652 11.130435-9.850435 11.130435h-9.861565c-5.453913 0-9.861565-4.986435-9.861565-11.130435s4.418783-11.130435 9.861565-11.130435h9.861565z m-29.584695 11.130435c0 6.144-4.407652 11.130435-9.850435 11.130435-5.453913 0-9.861565-4.986435-9.861565-11.130435v-11.130435c0-6.144 4.418783-11.130435 9.861565-11.130434s9.850435 4.986435 9.850435 11.130434v11.130435z m0-44.521739c0 6.144-4.407652 11.130435-9.850435 11.130435-5.453913 0-9.861565-4.986435-9.861565-11.130435v-11.130435c0-6.144 4.418783-11.130435 9.861565-11.130434s9.850435 4.986435 9.850435 11.130434v11.130435z m138.017391-44.521739c0-6.144 4.418783-11.130435 9.861565-11.130435 5.453913 0 9.861565 4.986435 9.861565 11.130435v11.130435c0 6.144-4.418783 11.130435-9.861565 11.130435s-9.861565-4.986435-9.861565-11.130435v-11.130435z m-138.017391 0c0 6.144-4.407652 11.130435-9.850435 11.130435-5.453913 0-9.861565-4.986435-9.861565-11.130435v-11.130435c0-6.144 4.418783-11.130435 9.861565-11.130435s9.850435 4.986435 9.850435 11.130435v11.130435z" fill="#005CB9" p-id="6866"></path><path d="M200.347826 432.973913l311.652174 183.652174 311.652174-183.652174V890.434783H200.347826z" fill="#000000" opacity=".1" p-id="6867"></path><path d="M166.978783 868.173913h690.042434c6.110609 0 11.152696-5.030957 11.152696-11.230609V456.347826L512 660.224 155.826087 456.347826v400.595478c0 6.233043 4.997565 11.230609 11.152696 11.230609z" fill="#40A0FF" p-id="6868"></path><path d="M879.326609 868.685913C878.970435 879.760696 870.533565 890.434783 857.043478 890.434783H166.978783A33.435826 33.435826 0 0 1 133.565217 856.943304V456.347826c0-17.552696 19.366957-28.204522 34.192696-18.788174l344.275478 202.195478 344.208696-202.195478C871.067826 428.143304 890.434783 438.784 890.434783 456.347826v400.595478c0 5.843478-1.502609 11.353043-4.140522 16.139131l-6.967652-4.396522zM868.173913 848.918261V456.347826L533.659826 652.454957 868.173913 848.90713zM155.826087 456.347826v400.595478c0 6.233043 4.997565 11.230609 11.152696 11.230609H857.043478L155.826087 456.347826z" fill="#005CB9" p-id="6869"></path></svg>